<svg viewBox="0 0 12.7 12.7" xmlns="http://www.w3.org/2000/svg"><g fill="#F3F7D4" style="stroke:#F3F7D4;stroke-width:0.285996"><path d="m 9.7068163,6.7055053 q -0.2480128,0 -0.3921283,0.1943883 -0.1441155,0.1927126 -0.1441155,0.5295408 0,0.3368281 0.1424397,0.5312164 0.1441156,0.1927126 0.3938041,0.1927126 0.2463369,0 0.3904527,-0.1943883 0.144115,-0.1943884 0.144115,-0.5295407 0,-0.3334766 -0.144115,-0.527865 Q 9.9531532,6.7055053 9.7068163,6.7055053 Z m 0,-0.2614189 q 0.4021827,0 0.6317617,0.2614189 0.22958,0.2614188 0.22958,0.7239291 0,0.4608344 -0.22958,0.723929 -0.229579,0.2614189 -0.6317617,0.2614189 -0.4038586,0 -0.633438,-0.2614189 -0.2279036,-0.2630946 -0.2279036,-0.723929 0,-0.4625103 0.2279036,-0.7239291 0.2295794,-0.2614189 0.633438,-0.2614189 z M 5.8068228,1.5739156 q -0.2480127,0 -0.3921282,0.1943884 -0.1441155,0.1927126 -0.1441155,0.5295407 0,0.3368281 0.1424397,0.5312165 0.1441155,0.1927126 0.393804,0.1927126 0.246337,0 0.3904525,-0.1943884 0.1441155,-0.1943883 0.1441155,-0.5295407 0,-0.3334766 -0.1441155,-0.527865 Q 6.0531598,1.5739156 5.8068228,1.5739156 Z m 0,-0.2614188 q 0.4021829,0 0.6317622,0.2614188 0.2295794,0.2614189 0.2295794,0.7239291 0,0.4608345 -0.2295794,0.7239291 -0.2295793,0.2614188 -0.6317622,0.2614188 -0.4038586,0 -0.6334379,-0.2614188 -0.2279036,-0.2630946 -0.2279036,-0.7239291 0,-0.4625102 0.2279036,-0.7239291 Q 5.4029642,1.3124968 5.8068228,1.3124968 Z M 2.6840573,10.592447 2.0053738,11.505737 2.7192483,12.4693 H 2.355608 L 1.8093096,11.731965 1.2630113,12.4693 H 0.89937099 L 1.6283274,11.487304 0.96137418,10.592447 H 1.3250145 L 1.8227157,11.261076 2.320417,10.592447 Z M 10.621672,1.5935874 9.942988,2.5068776 10.656863,3.4704406 H 10.293222 L 9.7469239,2.7331054 9.2006256,3.4704406 H 8.8369853 L 9.5659416,2.4884442 8.8989884,1.5935874 h 0.3636403 l 0.4977013,0.668629 0.497701,-0.668629 z m 0.86787,7.8768105 -11.39377583,0.06804 M 11.489542,4.383505 0.09576617,4.451545 M 7.8809027,0.11508151 7.9375229,13.806862 M 3.6477855,0.11508111 3.7044057,13.806862" /></g></svg>
